<svg id="visual" viewBox="0 0 800 45" width="1600" height="91" xmlns="http://www.w3.org/2000/svg" xmlns:xlink="http://www.w3.org/1999/xlink" version="1.1">
  <rect x="0" y="0" width="1600" height="91" fill="#121314"></rect>
  <path d="M0 55L145 55L145 57L291 57L291 45L436 45L436 51L582 51L582 51L727 51L727 48L873 48L873 53L1018 53L1018 48L1164 48L1164 51L1309 51L1309 57L1455 57L1455 52L1600 52L1600 55L1600 92L1600 92L1455 92L1455 92L1309 92L1309 92L1164 92L1164 92L1018 92L1018 92L873 92L873 92L727 92L727 92L582 92L582 92L436 92L436 92L291 92L291 92L145 92L145 92L0 92Z" fill="#d6fff6"></path>
  <path d="M0 68L145 68L145 72L291 72L291 68L436 68L436 77L582 77L582 59L727 59L727 78L873 78L873 61L1018 61L1018 67L1164 67L1164 72L1309 72L1309 63L1455 63L1455 79L1600 79L1600 62L1600 92L1600 92L1455 92L1455 92L1309 92L1309 92L1164 92L1164 92L1018 92L1018 92L873 92L873 92L727 92L727 92L582 92L582 92L436 92L436 92L291 92L291 92L145 92L145 92L0 92Z" fill="#22cccc"></path>
</svg>