<svg xmlns="http://www.w3.org/2000/svg" version="1.1" xmlns:xlink="http://www.w3.org/1999/xlink" xmlns:svgjs="http://svgjs.dev/svgjs" width="1920" height="99" preserveAspectRatio="none" viewBox="0 0 1920 99"><g mask="url(&quot;#SvgjsMask1036&quot;)" fill="none"><rect width="1920" height="99" x="0" y="0" fill="rgba(25, 22, 22, 1)"></rect><path d="M58 99L157 0L355 0L256 99z" fill="url(&quot;#SvgjsLinearGradient1037&quot;)"></path><path d="M371.8 99L470.8 0L868.3 0L769.3 99z" fill="url(&quot;#SvgjsLinearGradient1037&quot;)"></path><path d="M695.6 99L794.6 0L865.1 0L766.1 99z" fill="url(&quot;#SvgjsLinearGradient1037&quot;)"></path><path d="M963.4000000000001 99L1062.4 0L1386.4 0L1287.4 99z" fill="url(&quot;#SvgjsLinearGradient1037&quot;)"></path><path d="M1910 99L1811 0L1370 0L1469 99z" fill="url(&quot;#SvgjsLinearGradient1038&quot;)"></path><path d="M1580.2 99L1481.2 0L1287.7 0L1386.7 99z" fill="url(&quot;#SvgjsLinearGradient1038&quot;)"></path><path d="M1271.4 99L1172.4 0L938.4000000000001 0L1037.4 99z" fill="url(&quot;#SvgjsLinearGradient1038&quot;)"></path><path d="M951.5999999999999 99L852.5999999999999 0L801.5999999999999 0L900.5999999999999 99z" fill="url(&quot;#SvgjsLinearGradient1038&quot;)"></path><path d="M1844.2839425308855 99L1920 23.283942530885568L1920 99z" fill="url(&quot;#SvgjsLinearGradient1037&quot;)"></path><path d="M0 99L75.71605746911443 99L 0 23.283942530885568z" fill="url(&quot;#SvgjsLinearGradient1038&quot;)"></path></g><defs><mask id="SvgjsMask1036"><rect width="1920" height="99" fill="#ffffff"></rect></mask><linearGradient x1="0%" y1="100%" x2="100%" y2="0%" id="SvgjsLinearGradient1037"><stop stop-color="rgba(255, 255, 255, 0.2)" offset="0"></stop><stop stop-opacity="0" stop-color="rgba(255, 255, 255, 0.2)" offset="0.66"></stop></linearGradient><linearGradient x1="100%" y1="100%" x2="0%" y2="0%" id="SvgjsLinearGradient1038"><stop stop-color="rgba(255, 255, 255, 0.2)" offset="0"></stop><stop stop-opacity="0" stop-color="rgba(255, 255, 255, 0.2)" offset="0.66"></stop></linearGradient></defs></svg>