<svg id="visual" viewBox="0 0 2000 91" width="2000" height="91" xmlns="http://www.w3.org/2000/svg" xmlns:xlink="http://www.w3.org/1999/xlink" version="1.1"><path d="M0 12L182 8L364 9L545 12L727 13L909 12L1091 11L1273 11L1455 12L1636 10L1818 16L2000 7L2000 0L1818 0L1636 0L1455 0L1273 0L1091 0L909 0L727 0L545 0L364 0L182 0L0 0Z" fill="#00cc8e"></path><path d="M0 31L182 22L364 16L545 23L727 20L909 24L1091 19L1273 19L1455 30L1636 19L1818 30L2000 16L2000 5L1818 14L1636 8L1455 10L1273 9L1091 9L909 10L727 11L545 10L364 7L182 6L0 10Z" fill="#00b98a"></path><path d="M0 46L182 46L364 35L545 36L727 43L909 33L1091 43L1273 44L1455 46L1636 33L1818 49L2000 29L2000 14L1818 28L1636 17L1455 28L1273 17L1091 17L909 22L727 18L545 21L364 14L182 20L0 29Z" fill="#00a784"></path><path d="M0 61L182 66L364 73L545 76L727 72L909 58L1091 56L1273 78L1455 67L1636 66L1818 77L2000 70L2000 27L1818 47L1636 31L1455 44L1273 42L1091 41L909 31L727 41L545 34L364 33L182 44L0 44Z" fill="#00957c"></path><path d="M0 92L182 92L364 92L545 92L727 92L909 92L1091 92L1273 92L1455 92L1636 92L1818 92L2000 92L2000 68L1818 75L1636 64L1455 65L1273 76L1091 54L909 56L727 70L545 74L364 71L182 64L0 59Z" fill="#038373"></path></svg>